<svg xmlns="http://www.w3.org/2000/svg" width="83.44872mm" height="16.12076mm" viewBox="0 0 236.54754 45.69664">
  <title>smartive-negativ</title>
  <g>
    <g>
      <path d="M20.61626,23.69987a12.49114,12.49114,0,0,0-5.41733-1.38217c-1.16026,0-3.15.49785-3.15,1.934,0,1.93488,3.15,2.21081,4.53217,2.48758,4.6984.94,8.2357,3.15083,8.2357,8.40109,0,7.46108-6.79867,10.55622-13.37626,10.55622A21.99256,21.99256,0,0,1,0,42.43694l3.64784-7.01975a16.18239,16.18239,0,0,0,7.95893,2.87406c1.27163,0,3.15-.60839,3.15-2.156,0-2.21081-3.15-2.32136-6.3-3.15-3.15083-.82947-6.30165-2.377-6.30165-7.46191,0-6.96407,6.30165-10.05921,12.49193-10.05921a22.53772,22.53772,0,0,1,9.34028,1.82434Z" fill="#fff"/>
      <path d="M36.889,19.94148h.11054a10.49572,10.49572,0,0,1,8.9538-4.47731c4.09,0,7.62731,1.65811,9.6719,5.4165a10.82974,10.82974,0,0,1,9.61787-5.4165c7.18432,0,9.6719,4.6984,9.6719,11.21947V44.75746H64.85582V31.21664c0-2.92974.11054-7.73785-4.14569-7.73785-4.64271,0-4.80811,4.36594-4.80811,7.73785V44.75746H45.84282V31.21664c0-3.15083,0-7.95893-4.47648-7.95893-4.47731,0-4.47731,4.80811-4.47731,7.95893V44.75746H26.82981V16.40418H36.889Z" fill="#fff"/>
      <path d="M110.2383,44.75746H100.17992v-3.15h-.11137c-1.76865,2.81754-5.25027,4.08918-8.56649,4.08918-8.40109,0-14.31461-7.01975-14.31461-15.14325,0-8.12516,5.803-15.08922,14.20407-15.08922a11.5688,11.5688,0,0,1,8.7884,3.7027V16.40418H110.2383Zm-22.66-14.14921a6.46716,6.46716,0,0,0,12.93243,0,6.46645,6.46645,0,0,0-12.93243,0Z" fill="#fff"/>
      <path d="M123.583,21.04689h.11137c1.93488-3.48245,5.2511-5.03,9.174-5.03h1.93488V25.6896a8.13945,8.13945,0,0,0-4.2554-.94c-5.58189,0-6.9649,3.7027-6.9649,8.56649V44.75746H113.5246V16.40418H123.583Z" fill="#fff"/>
      <path d="M150.31326,44.75746h-10.06V24.6939h-3.2597V16.40418h3.2597V7.89171h10.06v8.51247h5.69326V24.6939h-5.69326Z" fill="#fff"/>
      <path d="M158.33515,16.40886V44.74977h10.05972V16.40886Z" fill="#fff"/>
      <path d="M188.959,30.93987l6.74382-14.53569h11.27349L192.16549,44.75746h-6.413L170.88515,16.40418h11.27515Z" fill="#fff"/>
      <path d="M236.54754,32.26636h-21.169c0,4.09,2.156,6.30082,6.3,6.30082a5.0283,5.0283,0,0,0,4.80894-2.59812h9.67273c-1.60242,6.6873-7.95893,9.72758-14.42515,9.72758-9.39679,0-16.41654-5.306-16.41654-15.08839,0-9.45165,6.46788-15.14408,15.69844-15.14408,9.83729,0,15.53056,6.07974,15.53056,15.75247Zm-9.34028-5.8038a5.65886,5.65886,0,0,0-5.69326-4.47648c-2.93058,0-5.36081,1.54757-5.9692,4.47648Z" fill="#fff"/>
    </g>
    <path d="M162.28417,0a5.6271,5.6271,0,0,0,1.0893,11.14913,5.519,5.519,0,0,0,3.91495-1.6Z" fill="#009fe3"/>
  </g>
</svg>
