<?xml version="1.0" encoding="UTF-8" standalone="no"?>
<svg
   xmlns:dc="http://purl.org/dc/elements/1.1/"
   xmlns:cc="http://creativecommons.org/ns#"
   xmlns:rdf="http://www.w3.org/1999/02/22-rdf-syntax-ns#"
   xmlns:svg="http://www.w3.org/2000/svg"
   xmlns="http://www.w3.org/2000/svg"
   viewBox="0 0 315.39999 60.933334"
   height="60.933334"
   width="315.39999"
   xml:space="preserve"
   id="svg2"
   version="1.1"><metadata
     id="metadata8"><rdf:RDF><cc:Work
         rdf:about=""><dc:format>image/svg+xml</dc:format><dc:type
           rdf:resource="http://purl.org/dc/dcmitype/StillImage" /></cc:Work></rdf:RDF></metadata><defs
     id="defs6" /><g
     transform="matrix(1.3333333,0,0,-1.3333333,0,60.933333)"
     id="g10"><g
       transform="scale(0.1)"
       id="g12"><path
         id="path14"
         style="fill:#ffffff;fill-opacity:1;fill-rule:nonzero;stroke:none"
         d="m 206.164,219.969 c -15.476,8.293 -37.035,13.82 -54.176,13.82 -11.601,0 -31.5,-4.976 -31.5,-19.34 0,-19.347 31.5,-22.109 45.325,-24.875 46.984,-9.402 82.355,-31.508 82.355,-84.011 C 248.168,30.9492 180.184,0 114.406,0 74.0625,0 34.2695,11.6016 0,32.5977 L 36.4805,102.793 C 56.9258,88.4336 91.1992,74.0547 116.066,74.0547 c 12.719,0 31.5,6.082 31.5,21.5586 0,22.1097 -31.5,23.2147 -62.9996,31.4997 -31.5078,8.293 -63.0156,23.77 -63.0156,74.617 0,69.641 63.0156,100.594 124.9222,100.594 32.047,0 64.113,-4.976 93.398,-18.242 l -33.707,-64.113" /><path
         id="path16"
         style="fill:#ffffff;fill-opacity:1;fill-rule:nonzero;stroke:none"
         d="m 368.891,257.551 h 1.105 c 23.77,31.508 53.059,44.773 89.539,44.773 40.899,0 76.274,-16.582 96.719,-54.164 19.348,35.371 57.48,54.164 96.176,54.164 71.843,0 96.718,-46.984 96.718,-112.195 V 9.39063 H 648.559 V 144.801 c 0,29.297 1.105,77.379 -41.457,77.379 -46.426,0 -48.082,-43.66 -48.082,-77.379 V 9.39063 H 458.43 V 144.801 c 0,31.508 0,79.59 -44.766,79.59 -44.773,0 -44.773,-48.082 -44.773,-79.59 V 9.39063 H 268.297 V 292.926 h 100.594 v -35.375" /><path
         id="path18"
         style="fill:#ffffff;fill-opacity:1;fill-rule:nonzero;stroke:none"
         d="m 875.781,150.883 c 0,-35.922 23.766,-63.5666 64.664,-63.5666 40.899,0 64.665,27.6446 64.665,63.5666 0,34.824 -23.766,64.113 -64.665,64.113 -40.898,0 -64.664,-29.289 -64.664,-64.113 z M 1102.38,9.39063 H 1001.8 V 40.8906 h -1.11 C 983,12.7148 948.184,0 915.02,0 831.012,0 771.875,70.1953 771.875,151.434 c 0,81.25 58.027,150.89 142.039,150.89 32.613,0 66.875,-12.16 87.886,-37.027 v 27.629 h 100.58 V 9.39063" /><path
         id="path20"
         style="fill:#ffffff;fill-opacity:1;fill-rule:nonzero;stroke:none"
         d="m 1235.83,246.496 h 1.11 c 19.35,34.824 52.51,50.301 91.74,50.301 h 19.35 V 200.07 c -13.81,7.746 -27.08,9.399 -42.55,9.399 -55.82,0 -69.65,-37.028 -69.65,-85.664 V 9.39063 H 1135.25 V 292.926 h 100.58 v -46.43" /><path
         id="path22"
         style="fill:#ffffff;fill-opacity:1;fill-rule:nonzero;stroke:none"
         d="m 1503.13,9.39063 h -100.6 V 210.027 h -32.59 v 82.899 h 32.59 v 85.125 h 100.6 v -85.125 h 56.94 v -82.899 h -56.94 V 9.39063" /><path
         id="path24"
         style="fill:#ffffff;fill-opacity:1;fill-rule:nonzero;stroke:none"
         d="m 1583.35,9.46875 h 100.598 v 283.41 H 1583.35 Z" /><path
         id="path26"
         style="fill:#ffffff;fill-opacity:1;fill-rule:nonzero;stroke:none"
         d="m 1889.59,147.566 67.44,145.36 h 112.73 L 1921.65,9.39063 h -64.13 L 1708.85,292.926 h 112.75 l 67.99,-145.36" /><path
         id="path28"
         style="fill:#ffffff;fill-opacity:1;fill-rule:nonzero;stroke:none"
         d="m 2272.07,192.34 c -4.98,27.078 -29.85,44.765 -56.93,44.765 -29.31,0 -53.61,-15.476 -59.69,-44.765 z m 93.41,-58.039 h -211.69 c 0,-40.8987 21.56,-63.008 63,-63.008 21.56,0 37.03,7.1836 48.09,25.9804 h 96.72 C 2345.58,30.4023 2282.01,0 2217.35,0 c -93.97,0 -164.16,53.0586 -164.16,150.883 0,94.515 64.67,151.441 156.98,151.441 98.37,0 155.31,-60.797 155.31,-157.523 v -10.5" /><path
         id="path30"
         style="fill:#122736;fill-opacity:1;fill-rule:nonzero;stroke:none"
         d="m 1622.84,456.965 c -25.7,-4.934 -45.45,-27.914 -45.45,-55.149 0,-30.98 25.37,-56.339 56.34,-56.339 15.15,0 29.11,5.957 39.15,16 l -50.04,95.488" /></g></g></svg>